<svg xmlns="http://www.w3.org/2000/svg" viewBox="0 0 1066.8 236">
  <svg width="242" x="-15" y="0" viewBox="0 0 192 192">
    <symbol id="piece" viewBox="0 0 80 80">
      <path fill="#fff" d="M13 47.5L0 40l47.6-27.5v15z"/>
      <path fill="#fff" d="M13 47.5L0 40l47.6-27.5v15z" transform="rotate(240 46.2 40)"/>
      <path fill="none" stroke="#fff" stroke-width="4" d="M80 0v80z"/>
    </symbol>
    <use width="72" height="72" x="106" y="56" href="#piece"/>
    <use width="72" height="72" x="106" y="56" transform="rotate(60 96 96)" href="#piece"/>
    <use width="72" height="72" x="106" y="56" transform="rotate(120 96 96)" href="#piece"/>
    <use width="72" height="72" x="106" y="56" transform="rotate(180 96 96)" href="#piece"/>
    <use width="72" height="72" x="106" y="56" transform="rotate(240 96 96)" href="#piece"/>
    <use width="72" height="72" x="106" y="56" transform="rotate(300 96 96)" href="#piece"/>
  </svg>
  <path fill="#fff" d="M309.25 40.13h5.28l36 85.2h-6.48l-11.88-28.08h-40.68l-11.88 28.08H273zm21.24 52.08l-18.6-44.64-19 44.64zm52.08 34.32q-19.92 0-19.92-27.6v-36h6v35.16q0 23 15.72 23a21.91 21.91 0 007.68-1.38 26.91 26.91 0 0012.66-9.71 30.18 30.18 0 003.9-7.68V62.93h6v54q0 3 2.52 3v5.4a5.56 5.56 0 01-1.08.12h-.72a6.6 6.6 0 01-4.26-1.5 4.9 4.9 0 01-1.86-4v-9.36a30.05 30.05 0 01-26.64 16zm81.96-4.2q-.48.24-1.62.9a16.64 16.64 0 01-2.88 1.26 35.91 35.91 0 01-3.9 1.08 21.56 21.56 0 01-4.68.48 15.27 15.27 0 01-4.74-.72 11.26 11.26 0 01-3.9-2.16 10.31 10.31 0 01-2.64-3.48 11.17 11.17 0 01-1-4.8v-47h-8.76v-4.96h8.76V41.57h6v21.36h14.52v4.92h-14.48v45.6a6 6 0 002.4 5.22 9 9 0 005.4 1.74 15.07 15.07 0 006.42-1.26q2.7-1.26 3.3-1.62zm64.56 3h-6v-34.8q0-23.16-15.48-23.16a20.32 20.32 0 00-7.5 1.44 25 25 0 00-6.84 4.08 29.47 29.47 0 00-5.58 6.18 27.16 27.16 0 00-3.6 7.62v38.64h-6v-87.6h6v40.08a30.12 30.12 0 0110.62-11.64 26.64 26.64 0 0114.58-4.32 19.14 19.14 0 018.88 1.92 16.67 16.67 0 016.18 5.52A24.89 24.89 0 01528 78a52.7 52.7 0 011.14 11.46zm47.28 1.2a28.67 28.67 0 01-12.18-2.53 30.17 30.17 0 01-9.66-7 32.4 32.4 0 01-6.36-10.32 33.89 33.89 0 01-2.28-12.36 33.67 33.67 0 018.76-22.8 30.17 30.17 0 019.66-7 28.38 28.38 0 0112.06-2.58 28 28 0 0112 2.58 31.08 31.08 0 019.66 7 32.7 32.7 0 016.48 10.32 33.83 33.83 0 01-6.42 35.16 30.17 30.17 0 01-9.66 7 28.38 28.38 0 01-12.06 2.53zm-24.48-32a28 28 0 001.92 10.38 27.13 27.13 0 005.22 8.46 24.76 24.76 0 007.74 5.7 22.45 22.45 0 0019 0 24.6 24.6 0 007.8-5.82 28.93 28.93 0 005.28-29.46 27.29 27.29 0 00-5.28-8.52 26.1 26.1 0 00-7.74-5.82 21 21 0 00-9.42-2.16 21.39 21.39 0 00-9.48 2.16 24.7 24.7 0 00-7.74 5.88 29.27 29.27 0 00-5.28 8.7 28.16 28.16 0 00-2.02 10.46zm101.88-26.2a24.51 24.51 0 00-23.52 18v39h-6v-62.4H630v15.36a30.13 30.13 0 018.58-10.74 22 22 0 0111.46-4.74q1.2-.12 2.16-.12h1.56zM672.33 50.13v-12h8.16v12zm0 75.6V63.21h8.16v62.52zm24.84-31.44a34.21 34.21 0 012.28-12.48 31.16 31.16 0 016.42-10.26 30 30 0 019.9-6.9 31.4 31.4 0 0112.72-2.52 29.17 29.17 0 0115.48 4 25.82 25.82 0 0110 10.86L746 79.53a19 19 0 00-7.38-7.5 21.77 21.77 0 00-19.44-.78 22.8 22.8 0 00-7.2 5.22 24 24 0 00-4.8 7.86 28.91 28.91 0 00.06 19.92 25.41 25.41 0 004.92 8.1 23.42 23.42 0 007.26 5.4 20.18 20.18 0 008.82 2 21.52 21.52 0 005.94-.84 23 23 0 005.46-2.34 19.64 19.64 0 004.32-3.42 11.12 11.12 0 002.52-4.08l8 2.4a20.45 20.45 0 01-3.84 6.18 26.49 26.49 0 01-5.94 4.92 29.15 29.15 0 01-7.56 3.24 32.17 32.17 0 01-8.58 1.14 30.37 30.37 0 01-22.56-9.66 32.88 32.88 0 01-6.54-10.38 33.76 33.76 0 01-2.29-12.62zm99.6 32.64a30.06 30.06 0 01-12.54-2.58 30.73 30.73 0 01-9.9-7.08 32.88 32.88 0 01-6.54-10.38 33.76 33.76 0 01-2.34-12.6 33 33 0 012.34-12.42 32.15 32.15 0 016.48-10.2 30.75 30.75 0 019.9-7 31.62 31.62 0 0125 0 29.81 29.81 0 019.78 7 33 33 0 018.64 22.44v1.92a4.83 4.83 0 01-.12 1.32H774a26.32 26.32 0 002.34 9.3 25.56 25.56 0 005.1 7.38 22.85 22.85 0 007.14 4.86 21.37 21.37 0 008.58 1.74 22.16 22.16 0 006-.84 24.26 24.26 0 005.52-2.28 20.53 20.53 0 004.56-3.54 15.2 15.2 0 003.12-4.62l7.08 1.92a20.79 20.79 0 01-4.08 6.3 28.48 28.48 0 01-6.12 4.92 30 30 0 01-7.68 3.24 33.3 33.3 0 01-8.79 1.2zm23-35.76a25.25 25.25 0 00-2.3-9.17 25 25 0 00-5-7.14 22.29 22.29 0 00-7.08-4.68 22 22 0 00-8.58-1.68 22.47 22.47 0 00-8.64 1.68 22.12 22.12 0 00-7.17 4.67 23 23 0 00-4.92 7.2 27.26 27.26 0 00-2.22 9.12zM277 201.67v-39.76h3.92v39.76zm12.64-20.16a21.25 21.25 0 011.26-7.14 19.77 19.77 0 013.67-6.36 18.61 18.61 0 015.93-4.56 17.64 17.64 0 018-1.77 16.62 16.62 0 019.1 2.41 14.67 14.67 0 015.57 6.27l-3.08 1.91a11.8 11.8 0 00-2.32-3.31 13.33 13.33 0 00-2.94-2.18 12.79 12.79 0 00-3.25-1.21 15.72 15.72 0 00-3.3-.36 13.32 13.32 0 00-6.33 1.46 14.63 14.63 0 00-4.62 3.8 16.81 16.81 0 00-2.83 5.3 19.34 19.34 0 00-.95 6 17.62 17.62 0 001.15 6.33 18 18 0 003.13 5.35 15.07 15.07 0 004.71 3.69 12.85 12.85 0 005.91 1.37 14.84 14.84 0 003.44-.42 12.86 12.86 0 003.42-1.34 14.54 14.54 0 003.05-2.3 11.92 11.92 0 002.35-3.33l3.25 1.68a12.16 12.16 0 01-2.69 4 17.73 17.73 0 01-3.86 2.88 19.14 19.14 0 01-4.51 1.8 18.69 18.69 0 01-4.68.61 15.82 15.82 0 01-7.5-1.79 19.44 19.44 0 01-5.88-4.68A21.57 21.57 0 01291 189a21.23 21.23 0 01-1.36-7.49zm69.16 16.69v3.47h-26.71v-39.76h26.21v3.47H336v14.33h19.43V183H336v15.2zm31.2-28.84a12 12 0 00-4.48-3.08 16.24 16.24 0 00-6.38-1.18q-5.26 0-7.67 2a6.61 6.61 0 00-2.41 5.4 5.93 5.93 0 00.64 2.94 5.57 5.57 0 002 2 13.78 13.78 0 003.44 1.45q2.1.63 5 1.24a52 52 0 015.74 1.51 16.54 16.54 0 014.34 2.1 8.73 8.73 0 012.74 3.05 9.43 9.43 0 011 4.48 10 10 0 01-1.06 4.76 9.48 9.48 0 01-3 3.36 13.19 13.19 0 01-4.53 2 24.28 24.28 0 01-5.77.64 23.73 23.73 0 01-16-5.76l2-3.2a15.3 15.3 0 002.55 2.13 18.43 18.43 0 003.3 1.76 20.49 20.49 0 003.89 1.18 22 22 0 004.37.42 13.67 13.67 0 007.42-1.71 5.74 5.74 0 002.66-5.18 6 6 0 00-.75-3.11 6.8 6.8 0 00-2.27-2.18 16.4 16.4 0 00-3.76-1.6q-2.24-.66-5.2-1.34c-2.09-.48-3.92-1-5.49-1.51a14.63 14.63 0 01-4-2 7.62 7.62 0 01-2.43-2.83 9.15 9.15 0 01-.82-4.06 11.19 11.19 0 011-4.9 9.56 9.56 0 012.94-3.58 14.08 14.08 0 014.48-2.19 20.4 20.4 0 015.71-.75 19.63 19.63 0 017.09 1.2 18.87 18.87 0 015.62 3.39zm23.79-7.45h3.3l16.52 39.76h-4.14l-5.15-12.43h-17.87l-5.09 12.43h-4.2zm9.63 24.25l-8-19.66-8.12 19.66zM479.87 168.51q-3.87-4.3-10.87-4.31-5.82 0-8.48 2.21a7.36 7.36 0 00-2.66 6 6.63 6.63 0 00.67 3.16 5.84 5.84 0 002.1 2.16 13.71 13.71 0 003.61 1.51q2.19.61 5.26 1.29t5.8 1.48a16.63 16.63 0 014.42 2.05 8.57 8.57 0 012.8 3 9.06 9.06 0 011 4.42 9.72 9.72 0 01-1 4.6 9.2 9.2 0 01-2.91 3.27 13.71 13.71 0 01-4.48 2 23.16 23.16 0 01-5.8.67 22.41 22.41 0 01-15.74-5.93l1.52-2.3a18 18 0 006.16 4.17 20.7 20.7 0 008.17 1.54q5.21 0 8.15-1.9a6.4 6.4 0 002.94-5.77 6.62 6.62 0 00-.78-3.33 7 7 0 00-2.33-2.38 15.55 15.55 0 00-3.89-1.74q-2.35-.72-5.49-1.4c-2.13-.45-4-.92-5.63-1.43a14.58 14.58 0 01-4.08-1.9 7.65 7.65 0 01-2.5-2.77 8.86 8.86 0 01-.84-4.09 10.52 10.52 0 011-4.76 10.05 10.05 0 012.88-3.5 12.88 12.88 0 014.43-2.15 20.79 20.79 0 015.71-.73 19.22 19.22 0 016.89 1.15 16.28 16.28 0 015.49 3.5zm11.31-2.57v-5.15H494v5.15zm0 35.73v-29.12H494v29.12zm36.82 0h-2.8v-16.24c0-3.77-.53-6.52-1.59-8.23a5.53 5.53 0 00-5.07-2.58 10.48 10.48 0 00-3.67.67 12.4 12.4 0 00-3.39 1.91 13.88 13.88 0 00-2.74 2.88 12 12 0 00-1.74 3.55v18h-2.8v-29.08h2.63v6.94a14 14 0 015.18-5.4 15.09 15.09 0 013.5-1.52 14 14 0 013.81-.53q4.77 0 6.72 3.33t2 9.55zm21.59.45a12.23 12.23 0 01-5.55-1.26 14.18 14.18 0 01-4.34-3.37 16.09 16.09 0 01-2.85-4.78 15.35 15.35 0 01-1-5.55 16.92 16.92 0 011-5.71 15.32 15.32 0 012.77-4.84 13.42 13.42 0 014.29-3.33 12.15 12.15 0 015.51-1.24 11.3 11.3 0 016.64 2 19.33 19.33 0 014.79 4.84v-6.32h2.57v29.68a11.44 11.44 0 01-1.12 5.2 10.76 10.76 0 01-3 3.73 13.2 13.2 0 01-4.37 2.24 18.09 18.09 0 01-5.24.76 19.56 19.56 0 01-4.53-.48 13.6 13.6 0 01-3.56-1.35 11.36 11.36 0 01-2.74-2.12 14.61 14.61 0 01-2.1-2.78l1.9-1.28a10.54 10.54 0 004.71 4.34 14.9 14.9 0 006.32 1.37 14.19 14.19 0 004.23-.62 10.08 10.08 0 003.47-1.82 8.69 8.69 0 002.36-3 9.69 9.69 0 00.86-4.2v-6.39a13.37 13.37 0 01-4.76 4.57 12.27 12.27 0 01-6.26 1.71zm.67-2.41a9.82 9.82 0 003.61-.7 13 13 0 003.19-1.82 11 11 0 002.36-2.52 7.28 7.28 0 001.14-2.8v-9.58a12.42 12.42 0 00-4.34-5.54 12.36 12.36 0 00-3.08-1.6 9.91 9.91 0 00-3.33-.59 9.8 9.8 0 00-4.7 1.12 11.38 11.38 0 00-3.5 2.91 13.31 13.31 0 00-2.19 4.07 14.43 14.43 0 00-.75 4.56 12.83 12.83 0 00.89 4.76 13.08 13.08 0 002.47 4 11.5 11.5 0 003.69 2.75 10.5 10.5 0 004.54.98zm23.46-38.92h2.86v35.11a3.55 3.55 0 00.92 2.57 3.38 3.38 0 002.55 1 10.06 10.06 0 001.49-.14 9 9 0 001.59-.42l.56 2.24a11.89 11.89 0 01-2.35.64 13.68 13.68 0 01-2.41.25 5.07 5.07 0 01-3.78-1.43 5.18 5.18 0 01-1.43-3.83zm28.06 41.44a13.56 13.56 0 01-5.71-1.21 14 14 0 01-4.57-3.3 15.74 15.74 0 01-4.11-10.72 15.45 15.45 0 014.08-10.55 14 14 0 014.51-3.22 14 14 0 0111.34 0 14.14 14.14 0 014.54 3.24 15 15 0 013 4.76 15.64 15.64 0 011.06 5.74v.71a1.46 1.46 0 01-.06.53H590.3a12.9 12.9 0 001.17 4.67 13.68 13.68 0 002.55 3.73 11.58 11.58 0 003.56 2.46 10.44 10.44 0 004.31.9 10.66 10.66 0 003-.42 12.34 12.34 0 002.71-1.15 9.9 9.9 0 002.24-1.76 8.22 8.22 0 001.54-2.27l2.47.67a9.28 9.28 0 01-1.82 2.88 12.17 12.17 0 01-2.8 2.27 14.42 14.42 0 01-3.5 1.49 14.71 14.71 0 01-3.95.55zM613.2 186a13 13 0 00-1.15-4.71 12.29 12.29 0 00-2.52-3.66 11.22 11.22 0 00-3.55-2.41 11.14 11.14 0 00-8.63 0 11.22 11.22 0 00-3.55 2.41 11.55 11.55 0 00-2.47 3.69 14.31 14.31 0 00-1.09 4.68zm50.01-17.49q-3.87-4.31-10.92-4.31-5.82 0-8.49 2.21a7.38 7.38 0 00-2.65 6 6.63 6.63 0 00.67 3.16 5.69 5.69 0 002.1 2.16 13.71 13.71 0 003.61 1.51q2.19.61 5.26 1.29t5.8 1.48A16.63 16.63 0 01663 184a8.57 8.57 0 012.8 3 9.06 9.06 0 011 4.42 9.72 9.72 0 01-1 4.6 9.14 9.14 0 01-2.92 3.27 13.66 13.66 0 01-4.47 2 23.16 23.16 0 01-5.8.67 22.41 22.41 0 01-15.74-5.93l1.51-2.3a18.18 18.18 0 006.17 4.17 20.7 20.7 0 008.17 1.54q5.21 0 8.15-1.9a6.4 6.4 0 002.94-5.77 6.62 6.62 0 00-.78-3.33 7 7 0 00-2.33-2.38 15.72 15.72 0 00-3.89-1.74q-2.35-.72-5.49-1.4c-2.13-.45-4-.92-5.63-1.43a14.58 14.58 0 01-4.08-1.9 7.56 7.56 0 01-2.5-2.77 8.86 8.86 0 01-.84-4.09 10.52 10.52 0 011-4.76 10.05 10.05 0 012.88-3.5 12.8 12.8 0 014.43-2.15 20.74 20.74 0 015.71-.73 19.22 19.22 0 016.89 1.15 16.28 16.28 0 015.49 3.5zm11.31-2.57v-5.15h2.8v5.15zm0 35.73v-29.12h2.8v29.12zm24.75.45a12.22 12.22 0 01-5.54-1.26 14.06 14.06 0 01-4.34-3.37 15.91 15.91 0 01-2.86-4.78 15.34 15.34 0 01-1-5.55 16.68 16.68 0 011-5.71 15.13 15.13 0 012.77-4.84 13.27 13.27 0 014.28-3.33 12.17 12.17 0 015.52-1.24 11.25 11.25 0 016.63 2 19.16 19.16 0 014.79 4.84v-6.32h2.58v29.68a11.57 11.57 0 01-1.12 5.2 10.9 10.9 0 01-3 3.73 13.2 13.2 0 01-4.37 2.24 18 18 0 01-5.23.76 19.71 19.71 0 01-4.54-.48 13.52 13.52 0 01-3.55-1.35 11.41 11.41 0 01-2.75-2.12 15.49 15.49 0 01-2.1-2.78l1.91-1.28a10.47 10.47 0 004.7 4.34 15 15 0 006.33 1.37 14.28 14.28 0 004.23-.62 10.18 10.18 0 003.47-1.82 8.66 8.66 0 002.35-3 9.55 9.55 0 00.87-4.2v-6.39a13.45 13.45 0 01-4.76 4.57 12.28 12.28 0 01-6.27 1.71zm.67-2.41a9.87 9.87 0 003.62-.7 13.15 13.15 0 003.19-1.82 10.93 10.93 0 002.35-2.52 7.15 7.15 0 001.15-2.8v-9.58a12.83 12.83 0 00-1.79-3.11 12.2 12.2 0 00-2.55-2.43 12.36 12.36 0 00-3.08-1.6 10.13 10.13 0 00-8 .53 11.38 11.38 0 00-3.5 2.91 13.07 13.07 0 00-2.18 4.07 14.16 14.16 0 00-.76 4.56 12.63 12.63 0 00.9 4.76 13.05 13.05 0 002.46 4 11.65 11.65 0 003.7 2.75 10.49 10.49 0 004.49.98zm47.06 1.96h-2.8v-16.24c0-3.77-.53-6.52-1.59-8.23a5.52 5.52 0 00-5.07-2.58 10.52 10.52 0 00-3.67.67 12.4 12.4 0 00-3.39 1.91 14.15 14.15 0 00-2.74 2.88 12.21 12.21 0 00-1.74 3.55v18h-2.8v-29.08h2.64v6.94a13.27 13.27 0 012.21-3.05 13.56 13.56 0 013-2.35 14.73 14.73 0 013.5-1.52 13.84 13.84 0 013.8-.53q4.77 0 6.72 3.33t2 9.55zm9.22-13.95v-2.57h16.13v2.57zM798.56 202a16.43 16.43 0 01-7.56-1.74 19.48 19.48 0 01-5.88-4.54 20.36 20.36 0 01-3.81-6.43 21.5 21.5 0 01-1.34-7.45 20.54 20.54 0 011.43-7.62 21.08 21.08 0 013.92-6.44 18.72 18.72 0 015.9-4.45 16.78 16.78 0 017.4-1.65 16.3 16.3 0 017.58 1.76 19.08 19.08 0 015.88 4.62 21.05 21.05 0 013.78 6.47 21 21 0 01-4 21.39 18.86 18.86 0 01-5.91 4.42 16.64 16.64 0 01-7.39 1.66zm-15.74-20.16a19.31 19.31 0 001.15 6.58 17.93 17.93 0 003.25 5.6 16 16 0 005 3.89 14.09 14.09 0 006.39 1.46 13.65 13.65 0 006.46-1.52 15.71 15.71 0 004.93-4 18.95 18.95 0 003.11-18.59 18.08 18.08 0 00-3.28-5.6 16.3 16.3 0 00-5-3.9 13.64 13.64 0 00-6.27-1.45 13.87 13.87 0 00-6.5 1.51 15.91 15.91 0 00-5 4 18.27 18.27 0 00-3.2 5.62 19 19 0 00-1.04 6.35zm66.42 19.83h-2.8v-16.24c0-3.77-.53-6.52-1.6-8.23a5.51 5.51 0 00-5.07-2.58 10.42 10.42 0 00-3.66.67 12.11 12.11 0 00-3.39 1.91 13.93 13.93 0 00-2.75 2.88 11.93 11.93 0 00-1.73 3.55v18h-2.8v-29.08h2.63v6.94a13.58 13.58 0 012.21-3.05 13.79 13.79 0 013-2.35 14.91 14.91 0 013.5-1.52 13.86 13.86 0 013.81-.53q4.76 0 6.72 3.33t2 9.55zm49.61-33.16q-3.86-4.31-10.92-4.31-5.82 0-8.48 2.21a7.38 7.38 0 00-2.66 6 6.63 6.63 0 00.67 3.16 5.84 5.84 0 002.1 2.16 13.85 13.85 0 003.61 1.51c1.46.41 3.21.84 5.27 1.29s4.06.94 5.79 1.48a16.7 16.7 0 014.43 2.05 8.75 8.75 0 012.8 3 9.17 9.17 0 011 4.42 9.73 9.73 0 01-1 4.6 9.2 9.2 0 01-2.91 3.27 13.62 13.62 0 01-4.48 2 23.16 23.16 0 01-5.8.67 22.39 22.39 0 01-15.73-5.93l1.51-2.3a18 18 0 006.16 4.17 20.75 20.75 0 008.18 1.54q5.2 0 8.14-1.9a6.41 6.41 0 002.95-5.77 6.62 6.62 0 00-.79-3.33 7 7 0 00-2.32-2.38 15.89 15.89 0 00-3.89-1.74q-2.35-.72-5.49-1.4c-2.13-.45-4-.92-5.63-1.43a14.52 14.52 0 01-4.09-1.9 7.62 7.62 0 01-2.49-2.77 8.86 8.86 0 01-.84-4.09 10.39 10.39 0 011-4.76 9.94 9.94 0 012.88-3.5 12.83 12.83 0 014.42-2.15 20.79 20.79 0 015.71-.73 19.18 19.18 0 016.89 1.15 16.09 16.09 0 015.49 3.5zm23.69 33.72a13.6 13.6 0 01-5.71-1.21 13.9 13.9 0 01-4.56-3.3 15.69 15.69 0 01-4.12-10.72 15.4 15.4 0 014.09-10.55 13.88 13.88 0 014.51-3.22 14 14 0 0111.34 0 14.21 14.21 0 014.53 3.24 15 15 0 013 4.76 15.64 15.64 0 011.06 5.74v.71a1.85 1.85 0 010 .53h-25.62a12.91 12.91 0 001.18 4.67 13.25 13.25 0 002.55 3.73 11.53 11.53 0 003.55 2.46 10.47 10.47 0 004.31.9 10.66 10.66 0 003-.42 12.42 12.42 0 002.72-1.15 10.13 10.13 0 002.24-1.76 8.68 8.68 0 001.54-2.27l2.46.67a9.28 9.28 0 01-1.82 2.88 12 12 0 01-2.8 2.27 14.25 14.25 0 01-3.5 1.49 14.65 14.65 0 01-3.95.55zM934 186a13.47 13.47 0 00-1.15-4.71 12.67 12.67 0 00-2.52-3.66 11.26 11.26 0 00-3.56-2.41 11.11 11.11 0 00-8.62 0 11.33 11.33 0 00-6 6.1A14.06 14.06 0 00911 186zm24-10.93a11.43 11.43 0 00-11 8.4v18.2h-2.8v-29.12h2.69v7.16a14 14 0 014-5 10.25 10.25 0 015.34-2.21 9.67 9.67 0 011-.06h.77zm15.67 26.6l-12.15-29.12h2.91l10.75 26.32L986 172.55h2.74l-12.15 29.12zm22.01-35.73v-5.15h2.8v5.15zm0 35.73v-29.12h2.8v29.12zm10.97-14.67a16 16 0 011.07-5.82 14.56 14.56 0 013-4.76 14.12 14.12 0 014.54-3.19A13.91 13.91 0 011021 172a13.53 13.53 0 017 1.79 11.23 11.23 0 014.53 5l-2.74.89a9.46 9.46 0 00-3.67-3.78 10.31 10.31 0 00-5.23-1.37 10.65 10.65 0 00-4.48.95 11.23 11.23 0 00-3.61 2.64 12.64 12.64 0 00-2.44 3.94 13.61 13.61 0 002.49 13.89 11.62 11.62 0 003.64 2.72 10.28 10.28 0 007.45.56 12.73 12.73 0 002.74-1.18 9.33 9.33 0 002.19-1.71 5.46 5.46 0 001.26-2l2.74.79a8.93 8.93 0 01-1.71 2.82 11.28 11.28 0 01-2.71 2.27 14 14 0 01-3.48 1.49 14.58 14.58 0 01-3.91.53 13.64 13.64 0 01-5.72-1.21 14.12 14.12 0 01-4.56-3.3 15.43 15.43 0 01-3-4.85 15.65 15.65 0 01-1.13-5.88zm46.03 15.23A13.63 13.63 0 011047 201a14.12 14.12 0 01-4.56-3.3 15.64 15.64 0 01-3-4.85 15.84 15.84 0 01-1.09-5.88 15.53 15.53 0 011.09-5.79 15.27 15.27 0 013-4.76 13.88 13.88 0 014.51-3.22 14 14 0 0111.34 0 14.1 14.1 0 014.53 3.24 15 15 0 013 4.76 15.64 15.64 0 011.07 5.74v.71a1.46 1.46 0 01-.06.53h-25.63a13.32 13.32 0 003.73 8.4 11.65 11.65 0 003.55 2.46 10.52 10.52 0 004.32.9 10.64 10.64 0 003-.42 12.42 12.42 0 002.72-1.15 9.9 9.9 0 002.24-1.76 8.44 8.44 0 001.54-2.27l2.46.67a9.1 9.1 0 01-1.82 2.88 12 12 0 01-2.8 2.27 14.25 14.25 0 01-3.5 1.49 14.6 14.6 0 01-3.96.58zm11.43-16.23a13.26 13.26 0 00-1.15-4.71 12.29 12.29 0 00-2.52-3.66 11.26 11.26 0 00-3.56-2.41 11.11 11.11 0 00-8.62 0 11.38 11.38 0 00-3.56 2.41 11.69 11.69 0 00-2.46 3.69 14.06 14.06 0 00-1.09 4.68z"/>
</svg>