<svg xmlns="http://www.w3.org/2000/svg" viewBox="0 0 192 192">
  <symbol id="piece" viewBox="0 0 80 80">
    <path fill="#fff" d="M13 47.5L0 40l47.6-27.5v15z"/>
    <path fill="#fff" d="M13 47.5L0 40l47.6-27.5v15z" transform="rotate(240 46.2 40)"/>
    <path fill="none" stroke="#fff" stroke-width="4" d="M80 0v80z"/>
  </symbol>
  <path fill="#181924" d="M0,0V192H192V0Z"/>
  <use width="72" height="72" x="106" y="56" href="#piece"/>
  <use width="72" height="72" x="106" y="56" transform="rotate(60 96 96)" href="#piece"/>
  <use width="72" height="72" x="106" y="56" transform="rotate(120 96 96)" href="#piece"/>
  <use width="72" height="72" x="106" y="56" transform="rotate(180 96 96)" href="#piece"/>
  <use width="72" height="72" x="106" y="56" transform="rotate(240 96 96)" href="#piece"/>
  <use width="72" height="72" x="106" y="56" transform="rotate(300 96 96)" href="#piece"/>
</svg>
